<?xml version="1.0" encoding="UTF-8"?>
<svg width="40px" height="43px" viewBox="0 0 40 43" version="1.1" xmlns="http://www.w3.org/2000/svg" xmlns:xlink="http://www.w3.org/1999/xlink">
    <!-- Generator: Sketch 51.3 (57544) - http://www.bohemiancoding.com/sketch -->
    <title>Shape</title>
    <desc>Created with Sketch.</desc>
    <defs></defs>
    <g id="Page-1" stroke="none" stroke-width="1" fill="none" fill-rule="evenodd">
        <g id="Mobile" transform="translate(-140.000000, -2569.000000)" fill="#E01171" fill-rule="nonzero">
            <g id="redes" transform="translate(0.000000, 2338.000000)">
                <g id="Group-8" transform="translate(129.000000, 65.000000)">
                    <path d="M36.5201754,177.492065 L45.2295161,168.159557 L44.2015745,167.06783 C42.8732299,165.644057 40.5521472,165.644057 39.2238026,167.06783 L35.5016214,171.057414 C34.8351022,171.771817 34.468986,172.72016 34.468986,173.726361 C34.468986,174.732561 34.8351022,175.680905 35.4969276,176.392792 L36.5201754,177.492065 Z M20.7302416,192.222838 C19.401897,190.799065 17.0808143,190.799065 15.7524697,192.222838 L12.0302885,196.212423 C11.3661162,196.926825 11,197.875169 11,198.881369 C11,199.887569 11.3661162,200.835913 12.0349823,201.552831 L13.060577,202.639527 L21.7511425,193.324628 L20.7302416,192.222838 Z M48.402523,171.570577 L47.5717209,170.680089 L38.8694209,180.007566 L40.394905,181.640126 C40.6156113,181.876091 40.7396498,182.196487 40.7396498,182.530614 C40.7396498,182.864741 40.6156113,183.185136 40.394905,183.421101 L27.2851294,197.472688 C26.8203351,197.946402 26.0906664,197.946402 25.6258721,197.472688 L24.100388,195.837613 L15.4121694,205.170121 L16.2429715,206.060608 C16.8531651,206.714638 19.1672071,208.840237 23.4150936,208.840237 C27.2076817,208.840237 33.403494,207.0492 41.3688679,198.514106 C57.2644121,181.471588 48.7803737,171.975572 48.402523,171.570577 Z" id="Shape"></path>
                </g>
            </g>
        </g>
    </g>
</svg>