<?xml version="1.0" encoding="UTF-8"?>
<svg width="100px" height="54px" viewBox="0 0 100 54" version="1.1" xmlns="http://www.w3.org/2000/svg" xmlns:xlink="http://www.w3.org/1999/xlink">
    <!-- Generator: Sketch 51.3 (57544) - http://www.bohemiancoding.com/sketch -->
    <title>logo</title>
    <desc>Created with Sketch.</desc>
    <defs>
        <linearGradient x1="53.9257813%" y1="100%" x2="53.9257824%" y2="-13.264974%" id="linearGradient-1">
            <stop stop-color="#000000" offset="0%"></stop>
            <stop stop-color="#505050" offset="100%"></stop>
        </linearGradient>
        <linearGradient x1="22.3111979%" y1="92.9179152%" x2="70.4492188%" y2="37.8558433%" id="linearGradient-2">
            <stop stop-color="#000000" offset="0%"></stop>
            <stop stop-color="#505050" offset="100%"></stop>
        </linearGradient>
        <radialGradient cx="50%" cy="50%" fx="50%" fy="50%" r="74.8871688%" gradientTransform="translate(0.500000,0.500000),scale(1.000000,0.800000),rotate(-9.085617),translate(-0.500000,-0.500000)" id="radialGradient-3">
            <stop stop-color="#F6F6F6" offset="0%"></stop>
            <stop stop-color="#FF7F00" offset="0%"></stop>
            <stop stop-color="#E5472C" offset="100%"></stop>
        </radialGradient>
        <radialGradient cx="50%" cy="50%" fx="50%" fy="50%" r="69.2276928%" gradientTransform="translate(0.500000,0.500000),scale(0.023862,1.000000),rotate(-0.174911),translate(-0.500000,-0.500000)" id="radialGradient-4">
            <stop stop-color="#F6F6F6" offset="0%"></stop>
            <stop stop-color="#FF7F00" offset="0%"></stop>
            <stop stop-color="#E5472C" offset="100%"></stop>
        </radialGradient>
        <radialGradient cx="50%" cy="50%" fx="50%" fy="50%" r="50%" id="radialGradient-5">
            <stop stop-color="#F6F6F6" offset="0%"></stop>
            <stop stop-color="#FF7F00" offset="0%"></stop>
            <stop stop-color="#E5472C" offset="100%"></stop>
        </radialGradient>
        <radialGradient cx="50%" cy="50%" fx="50%" fy="50%" r="74.8871592%" gradientTransform="translate(0.500000,0.500000),scale(1.000000,0.333333),rotate(-20.996775),translate(-0.500000,-0.500000)" id="radialGradient-6">
            <stop stop-color="#F6F6F6" offset="0%"></stop>
            <stop stop-color="#FF7F00" offset="0%"></stop>
            <stop stop-color="#E5472C" offset="100%"></stop>
        </radialGradient>
        <linearGradient x1="-13.5143649%" y1="53.1883446%" x2="83.7701613%" y2="53.1883419%" id="linearGradient-7">
            <stop stop-color="#000000" offset="0%"></stop>
            <stop stop-color="#505050" offset="100%"></stop>
        </linearGradient>
    </defs>
    <g id="Page-1" stroke="none" stroke-width="1" fill="none" fill-rule="evenodd">
        <g id="Mobile" transform="translate(-190.000000, -1680.000000)">
            <g id="Portfolio" transform="translate(20.000000, 1416.000000)">
                <g id="desarrollomovil-copy-4" transform="translate(160.000000, 224.000000)">
                    <g id="logo" transform="translate(10.000000, 40.000000)">
                        <path d="M56.9438597,34.3295868 L56.6976744,34.3295868 L57.7073913,31.5862679 C57.7466384,31.4737773 57.8072929,31.4302326 57.8822189,31.4302326 C57.9571448,31.4302326 58.017799,31.4737773 58.0570462,31.5862679 L59.0596274,34.3295868 L58.8134418,34.3295868 L58.5387132,33.6002122 L57.2185886,33.6002122 L56.9438597,34.3295868 Z M58.4637873,33.3716022 L57.8786509,31.8112489 L57.2935146,33.3716022 L58.4637873,33.3716022 Z M59.484208,32.7982633 C59.484208,32.5333659 59.6340599,32.4499054 59.8838132,32.4499054 L60.0372331,32.4499054 L60.0372331,32.2249241 L59.8267266,32.2249241 C59.4877759,32.2249241 59.2558621,32.3773308 59.2558621,32.747461 L59.2558621,34.3295868 L59.484208,34.3295868 L59.484208,32.7982633 Z M61.7391238,34.3295868 L60.7864932,34.3295868 C60.4475421,34.3295868 60.2156283,34.1844376 60.2156283,33.8143072 L60.2156283,32.747461 C60.2156283,32.3773308 60.4475421,32.2249241 60.7864932,32.2249241 L61.3966048,32.2249241 C61.7355558,32.2249241 61.9674697,32.3773308 61.9674697,32.747461 L61.9674697,35.127907 L61.7391238,35.127907 L61.7391238,34.3295868 Z M61.7391238,34.1082341 L61.7391238,32.7982633 C61.7391238,32.5333659 61.5857039,32.4462765 61.3395183,32.4462765 L60.8364438,32.4462765 C60.5973941,32.4462765 60.4439742,32.5333659 60.4439742,32.7982633 L60.4439742,33.7562476 C60.4439742,34.0392885 60.6116659,34.1082341 60.8578512,34.1082341 L61.7391238,34.1082341 Z M62.5882848,32.2249241 L62.359939,32.2249241 L62.359939,33.8070499 C62.359939,34.17718 62.5918528,34.3295868 62.9308038,34.3295868 L63.5587549,34.3295868 C63.8977059,34.3295868 64.1296198,34.17718 64.1296198,33.8070499 L64.1296198,32.2249241 L63.9012739,32.2249241 L63.9012739,33.7562476 C63.9012739,34.0247736 63.747854,34.1082341 63.5088043,34.1082341 L62.9878904,34.1082341 C62.7381371,34.1082341 62.5882848,34.0247736 62.5882848,33.7562476 L62.5882848,32.2249241 Z M64.7896821,32.2249241 L64.5613362,32.2249241 L64.5613362,34.3295868 L64.7896821,34.3295868 L64.7896821,32.2249241 Z M64.5399288,31.9309972 C64.5399288,32.0072004 64.6005833,32.0688887 64.6755093,32.0688887 C64.7504353,32.0688887 64.8110894,32.0072004 64.8110894,31.9309972 C64.8110894,31.8547937 64.7504353,31.7931054 64.6755093,31.7931054 C64.6005833,31.7931054 64.5399288,31.8547937 64.5399288,31.9309972 Z M65.2392382,31.4991785 L65.2392382,34.3295868 L65.4675841,34.3295868 L65.4675841,32.4462765 L66.0384487,32.4462765 L66.0384487,32.2249241 L65.4675841,32.2249241 L65.4675841,31.4991785 L65.2392382,31.4991785 Z M67.9722532,34.1082341 L67.9722532,34.3295868 L66.7841408,34.3295868 C66.4451898,34.3295868 66.2168439,34.17718 66.2168439,33.803421 L66.2168439,32.7402037 C66.2168439,32.3700732 66.4487577,32.2249241 66.7877087,32.2249241 L67.4263637,32.2249241 C67.7653147,32.2249241 67.9936606,32.3737019 67.9936606,32.7438323 L67.9936606,33.0123584 L66.4487577,33.6364996 C66.4487577,34.0102587 66.5308196,34.1082341 66.8590668,34.1082341 L67.9722532,34.1082341 Z M66.4451898,32.8091493 L66.4451898,33.404261 L67.7617467,32.8708379 L67.7617467,32.7764908 C67.7617467,32.52248 67.6297342,32.4499054 67.3550056,32.4499054 L66.8519309,32.4499054 C66.5807702,32.4499054 66.4451898,32.5442522 66.4451898,32.8091493 Z M69.7419337,34.3295868 L69.7419337,34.1082341 L68.9355873,34.1082341 C68.6929697,34.1082341 68.5431177,34.0247736 68.5431177,33.7562476 L68.5431177,32.7982633 C68.5431177,32.5333659 68.6929697,32.4499054 68.9355873,32.4499054 L69.7419337,32.4499054 L69.7419337,32.2249241 L68.8856367,32.2249241 C68.5466857,32.2249241 68.3147718,32.3700732 68.3147718,32.7402037 L68.3147718,33.8070499 C68.3147718,34.17718 68.5466857,34.3295868 68.8856367,34.3295868 L69.7419337,34.3295868 Z M70.0630453,31.4991785 L70.0630453,34.3295868 L70.2913911,34.3295868 L70.2913911,32.4462765 L70.8622557,32.4462765 L70.8622557,32.2249241 L70.2913911,32.2249241 L70.2913911,31.4991785 L70.0630453,31.4991785 Z M71.2868365,32.2249241 L71.0584906,32.2249241 L71.0584906,33.8070499 C71.0584906,34.17718 71.2904045,34.3295868 71.6293552,34.3295868 L72.2573066,34.3295868 C72.5962576,34.3295868 72.8281711,34.17718 72.8281711,33.8070499 L72.8281711,32.2249241 L72.5998252,32.2249241 L72.5998252,33.7562476 C72.5998252,34.0247736 72.4464053,34.1082341 72.2073559,34.1082341 L71.6864417,34.1082341 C71.4366885,34.1082341 71.2868365,34.0247736 71.2868365,33.7562476 L71.2868365,32.2249241 Z M73.4489866,32.7982633 C73.4489866,32.5333659 73.5988386,32.4499054 73.8485921,32.4499054 L74.002012,32.4499054 L74.002012,32.2249241 L73.7915056,32.2249241 C73.4525546,32.2249241 73.2206407,32.3773308 73.2206407,32.747461 L73.2206407,34.3295868 L73.4489866,34.3295868 L73.4489866,32.7982633 Z M74.7155929,34.3295868 C74.3766419,34.3295868 74.1447281,34.17718 74.1447281,33.8070499 L74.1447281,33.455063 C74.1447281,33.0849329 74.3766419,32.9397838 74.7155929,32.9397838 L75.6967665,32.9397838 L75.6967665,32.7982633 C75.6967665,32.5297373 75.5469146,32.4462765 75.3042972,32.4462765 L74.1625675,32.4462765 L74.1625675,32.2249241 L75.3542479,32.2249241 C75.6931986,32.2249241 75.9251124,32.3700732 75.9251124,32.7402037 L75.9251124,33.8070499 C75.9251124,34.17718 75.6931986,34.3295868 75.3542479,34.3295868 L74.7155929,34.3295868 Z M75.3042972,34.1082341 C75.6147047,34.1082341 75.6967665,33.9957438 75.6967665,33.6183557 L75.6967665,33.1647648 L74.7655436,33.1647648 C74.5336298,33.1647648 74.373074,33.2373394 74.373074,33.4949791 L74.373074,33.7344753 C74.373074,34.0211446 74.4908147,34.1082341 74.7655436,34.1082341 L75.3042972,34.1082341 Z M77.1810149,33.3462014 L78.1800282,33.3462014 L78.1800282,33.1067051 L77.1810149,33.1067051 L77.1810149,33.3462014 Z M81.3090804,31.7386744 L81.3090804,31.4991785 L80.0389065,31.4991785 C79.6963878,31.4991785 79.4716096,31.6552139 79.4716096,32.025344 L79.4716096,33.8106786 C79.4716096,34.1808087 79.6963878,34.3295868 80.0389065,34.3295868 L81.3090804,34.3295868 L81.3090804,34.0900906 L80.1031289,34.0900906 C79.8605112,34.0900906 79.7142272,34.0030011 79.7142272,33.7344753 L79.7142272,32.0942899 C79.7142272,31.8293928 79.8605112,31.7386744 80.1031289,31.7386744 L81.3090804,31.7386744 Z M83.4177122,32.7402037 L83.4177122,33.8106786 C83.4177122,34.1808087 83.1857984,34.3295868 82.8468474,34.3295868 L82.2010566,34.3295868 C81.8621058,34.3295868 81.630192,34.17718 81.630192,33.8070499 L81.630192,32.7438323 C81.630192,32.3737019 81.8621058,32.2249241 82.2010566,32.2249241 L82.8468474,32.2249241 C83.1857984,32.2249241 83.4177122,32.3700732 83.4177122,32.7402037 Z M81.8585379,32.7982633 L81.8585379,33.7562476 C81.8585379,34.0247736 82.0119578,34.1082341 82.2581431,34.1082341 L82.7683535,34.1082341 C83.018107,34.1082341 83.1893664,34.0392885 83.1893664,33.7562476 L83.1893664,32.7982633 C83.1893664,32.5152224 83.018107,32.4499054 82.7683535,32.4499054 L82.2581431,32.4499054 C82.0119578,32.4499054 81.8585379,32.5333659 81.8585379,32.7982633 Z M85.2979979,34.3295868 L85.5263437,34.3295868 L85.5263437,32.7402037 C85.5263437,32.3700732 85.2944299,32.2249241 84.9554792,32.2249241 L84.3275278,32.2249241 C83.9885771,32.2249241 83.7566633,32.3700732 83.7566633,32.7402037 L83.7566633,34.3295868 L83.9850091,34.3295868 L83.9850091,32.7982633 C83.9850091,32.5333659 84.1348611,32.4499054 84.3774785,32.4499054 L84.8983927,32.4499054 C85.144578,32.4499054 85.2979979,32.5333659 85.2979979,32.7982633 L85.2979979,34.3295868 Z M87.1497405,33.7671338 C87.1461726,34.0320309 87.0070242,34.1046055 86.7608388,34.1046055 L85.8117762,34.1046055 L85.8117762,34.3295868 L86.8072215,34.3295868 C87.1461726,34.3295868 87.3780864,34.1880663 87.3780864,33.8179359 L87.3780864,33.6727867 C87.3780864,33.2917704 87.1461726,33.1248487 86.8072215,33.1248487 L86.4111843,33.1248487 C86.1757025,33.1248487 86.0222826,33.0486455 86.0222826,32.7982633 C86.0222826,32.5261086 86.1614307,32.4499054 86.4111843,32.4499054 L87.3602467,32.4499054 L87.3602467,32.2249241 L86.3648013,32.2249241 C86.0258506,32.2249241 85.7939367,32.3664446 85.7939367,32.7365747 L85.7939367,32.7982633 C85.7939367,33.1792797 86.0258506,33.3462014 86.3648013,33.3462014 L86.7608388,33.3462014 C86.9963206,33.3462014 87.1497405,33.4224046 87.1497405,33.6727867 L87.1497405,33.7671338 Z M87.6991977,31.4991785 L87.6991977,34.3295868 L87.9275436,34.3295868 L87.9275436,32.4462765 L88.4984084,32.4462765 L88.4984084,32.2249241 L87.9275436,32.2249241 L87.9275436,31.4991785 L87.6991977,31.4991785 Z M88.9229889,32.7982633 C88.9229889,32.5333659 89.0728409,32.4499054 89.3225945,32.4499054 L89.4760144,32.4499054 L89.4760144,32.2249241 L89.2655079,32.2249241 C88.9265569,32.2249241 88.6946431,32.3773308 88.6946431,32.747461 L88.6946431,34.3295868 L88.9229889,34.3295868 L88.9229889,32.7982633 Z M89.9005949,32.2249241 L89.672249,32.2249241 L89.672249,33.8070499 C89.672249,34.17718 89.9041628,34.3295868 90.2431139,34.3295868 L90.871065,34.3295868 C91.210016,34.3295868 91.4419298,34.17718 91.4419298,33.8070499 L91.4419298,32.2249241 L91.2135839,32.2249241 L91.2135839,33.7562476 C91.2135839,34.0247736 91.060164,34.1082341 90.8211143,34.1082341 L90.3002001,34.1082341 C90.0504468,34.1082341 89.9005949,34.0247736 89.9005949,33.7562476 L89.9005949,32.2249241 Z M93.2437215,34.3295868 L93.2437215,34.1082341 L92.4373752,34.1082341 C92.1947575,34.1082341 92.0449056,34.0247736 92.0449056,33.7562476 L92.0449056,32.7982633 C92.0449056,32.5333659 92.1947575,32.4499054 92.4373752,32.4499054 L93.2437215,32.4499054 L93.2437215,32.2249241 L92.3874245,32.2249241 C92.0484735,32.2249241 91.8165597,32.3700732 91.8165597,32.7402037 L91.8165597,33.8070499 C91.8165597,34.17718 92.0484735,34.3295868 92.3874245,34.3295868 L93.2437215,34.3295868 Z M94.9563157,34.3295868 L94.9563157,34.1082341 L94.1499694,34.1082341 C93.9073518,34.1082341 93.7574998,34.0247736 93.7574998,33.7562476 L93.7574998,32.7982633 C93.7574998,32.5333659 93.9073518,32.4499054 94.1499694,32.4499054 L94.9563157,32.4499054 L94.9563157,32.2249241 L94.1000188,32.2249241 C93.7610678,32.2249241 93.5291539,32.3700732 93.5291539,32.7402037 L93.5291539,33.8070499 C93.5291539,34.17718 93.7610678,34.3295868 94.1000188,34.3295868 L94.9563157,34.3295868 Z M95.5271806,32.2249241 L95.2988347,32.2249241 L95.2988347,34.3295868 L95.5271806,34.3295868 L95.5271806,32.2249241 Z M95.2774273,31.9309972 C95.2774273,32.0072004 95.3380815,32.0688887 95.4130075,32.0688887 C95.4879335,32.0688887 95.548588,32.0072004 95.548588,31.9309972 C95.548588,31.8547937 95.4879335,31.7931054 95.4130075,31.7931054 C95.3380815,31.7931054 95.2774273,31.8547937 95.2774273,31.9309972 Z M97.7285778,32.7402037 L97.7285778,33.8106786 C97.7285778,34.1808087 97.496664,34.3295868 97.157713,34.3295868 L96.5119221,34.3295868 C96.1729711,34.3295868 95.9410576,34.17718 95.9410576,33.8070499 L95.9410576,32.7438323 C95.9410576,32.3737019 96.1729711,32.2249241 96.5119221,32.2249241 L97.157713,32.2249241 C97.496664,32.2249241 97.7285778,32.3700732 97.7285778,32.7402037 Z M96.1694035,32.7982633 L96.1694035,33.7562476 C96.1694035,34.0247736 96.3228234,34.1082341 96.5690087,34.1082341 L97.079219,34.1082341 C97.3289723,34.1082341 97.5002316,34.0392885 97.5002316,33.7562476 L97.5002316,32.7982633 C97.5002316,32.5152224 97.3289723,32.4499054 97.079219,32.4499054 L96.5690087,32.4499054 C96.3228234,32.4499054 96.1694035,32.5333659 96.1694035,32.7982633 Z M99.6088634,34.3295868 L99.8372093,34.3295868 L99.8372093,32.7402037 C99.8372093,32.3700732 99.6052955,32.2249241 99.2663445,32.2249241 L98.6383934,32.2249241 C98.2994423,32.2249241 98.0675285,32.3700732 98.0675285,32.7402037 L98.0675285,34.3295868 L98.2958744,34.3295868 L98.2958744,32.7982633 C98.2958744,32.5333659 98.4457263,32.4499054 98.688344,32.4499054 L99.2092582,32.4499054 C99.4554435,32.4499054 99.6088634,32.5333659 99.6088634,32.7982633 L99.6088634,34.3295868 Z" id="Arquitectura---Const" fill="url(#linearGradient-1)" fill-rule="nonzero"></path>
                        <path d="M72.1016129,38.7109535 C71.8676598,38.7109535 71.7152358,38.6296047 71.7152358,38.3707674 L71.7152358,36.7918605 L71.4883721,36.7918605 L71.4883721,38.4114419 C71.4883721,38.7886047 71.7187803,38.9365116 72.0555313,38.9365116 L73.0090672,38.9365116 L73.0090672,39.1657674 C73.0090672,39.4393953 72.860188,39.5244419 72.6191456,39.5244419 L71.5096405,39.5244419 L71.5096405,39.75 L72.6723166,39.75 C73.0090672,39.75 73.2394758,39.602093 73.2394758,39.2249302 L73.2394758,36.7918605 L73.0090672,36.7918605 L73.0090672,38.7109535 L72.1016129,38.7109535 Z M75.2918826,37.3354186 C75.0508398,37.3354186 74.9055055,37.2466744 74.9055055,36.9767442 L74.9055055,36.6587442 C74.9055055,36.388814 75.0508398,36.2963721 75.2918826,36.2963721 L76.4793716,36.2963721 L76.4793716,36.0523256 L75.2280771,36.0523256 C74.8877816,36.0523256 74.6644627,36.2039302 74.6644627,36.581093 L74.6644627,37.047 C74.6644627,37.4241628 74.8877816,37.5831628 75.2280771,37.5831628 L75.8696756,37.5831628 C76.1107184,37.5831628 76.2525082,37.671907 76.2525082,37.9418372 L76.2525082,38.330093 C76.2525082,38.6037209 76.1107184,38.6924651 75.8696756,38.6924651 L74.6821866,38.6924651 L74.6821866,38.9365116 L75.9334812,38.9365116 C76.2702318,38.9365116 76.4970955,38.784907 76.4970955,38.4077442 L76.4970955,37.8715814 C76.4970955,37.4981163 76.2702318,37.3354186 75.9334812,37.3354186 L75.2918826,37.3354186 Z M78.595584,38.7109535 L78.595584,38.9365116 L77.415184,38.9365116 C77.0784334,38.9365116 76.8515697,38.7812093 76.8515697,38.4003488 L76.8515697,37.3169302 C76.8515697,36.9397674 77.0819782,36.7918605 77.4187288,36.7918605 L78.053238,36.7918605 C78.3899886,36.7918605 78.6168524,36.9434651 78.6168524,37.3206279 L78.6168524,37.5942558 L77.0819782,38.2302558 C77.0819782,38.6111163 77.1635073,38.7109535 77.4896237,38.7109535 L78.595584,38.7109535 Z M77.0784334,37.387186 L77.0784334,37.9936047 L78.3864441,37.4500465 L78.3864441,37.353907 C78.3864441,37.0950698 78.2552885,37.0211163 77.9823432,37.0211163 L77.4825344,37.0211163 C77.2131338,37.0211163 77.0784334,37.1172558 77.0784334,37.387186 Z M79.1804667,37.376093 C79.1804667,37.1061628 79.3293459,37.0211163 79.577478,37.0211163 L79.729902,37.0211163 L79.729902,36.7918605 L79.5207621,36.7918605 C79.1840115,36.7918605 78.953603,36.9471628 78.953603,37.3243256 L78.953603,38.9365116 L79.1804667,38.9365116 L79.1804667,37.376093 Z M81.8425695,36.7918605 L81.5979822,36.7918605 L80.7862357,38.6406977 L79.9780341,36.7918605 L79.729902,36.7918605 L80.6338117,38.8736512 C80.6657144,38.9476047 80.7153408,38.977186 80.7862357,38.977186 C80.8606752,38.977186 80.9067571,38.9476047 80.9386597,38.8736512 L81.8425695,36.7918605 Z M82.303386,36.7918605 L82.0765226,36.7918605 L82.0765226,38.9365116 L82.303386,38.9365116 L82.303386,36.7918605 Z M82.0552542,36.4923488 C82.0552542,36.57 82.1155146,36.6328605 82.1899543,36.6328605 C82.264394,36.6328605 82.3246547,36.57 82.3246547,36.4923488 C82.3246547,36.4146977 82.264394,36.3518372 82.1899543,36.3518372 C82.1155146,36.3518372 82.0552542,36.4146977 82.0552542,36.4923488 Z M84.1324739,38.9365116 L84.1324739,38.7109535 L83.331362,38.7109535 C83.0903192,38.7109535 82.9414401,38.625907 82.9414401,38.3522791 L82.9414401,37.376093 C82.9414401,37.1061628 83.0903192,37.0211163 83.331362,37.0211163 L84.1324739,37.0211163 L84.1324739,36.7918605 L83.2817355,36.7918605 C82.9449849,36.7918605 82.7145763,36.9397674 82.7145763,37.3169302 L82.7145763,38.4040465 C82.7145763,38.7812093 82.9449849,38.9365116 83.2817355,38.9365116 L84.1324739,38.9365116 Z M84.6996331,36.7918605 L84.4727694,36.7918605 L84.4727694,38.9365116 L84.6996331,38.9365116 L84.6996331,36.7918605 Z M84.451501,36.4923488 C84.451501,36.57 84.5117617,36.6328605 84.5862014,36.6328605 C84.6606408,36.6328605 84.7209015,36.57 84.7209015,36.4923488 C84.7209015,36.4146977 84.6606408,36.3518372 84.5862014,36.3518372 C84.5117617,36.3518372 84.451501,36.4146977 84.451501,36.4923488 Z M86.88674,37.3169302 L86.88674,38.4077442 C86.88674,38.784907 86.6563318,38.9365116 86.3195812,38.9365116 L85.6779826,38.9365116 C85.3412317,38.9365116 85.1108234,38.7812093 85.1108234,38.4040465 L85.1108234,37.3206279 C85.1108234,36.9434651 85.3412317,36.7918605 85.6779826,36.7918605 L86.3195812,36.7918605 C86.6563318,36.7918605 86.88674,36.9397674 86.88674,37.3169302 Z M85.3376872,37.376093 L85.3376872,38.3522791 C85.3376872,38.625907 85.4901112,38.7109535 85.7346984,38.7109535 L86.2415966,38.7109535 C86.4897287,38.7109535 86.6598766,38.6406977 86.6598766,38.3522791 L86.6598766,37.376093 C86.6598766,37.0876744 86.4897287,37.0211163 86.2415966,37.0211163 L85.7346984,37.0211163 C85.4901112,37.0211163 85.3376872,37.1061628 85.3376872,37.376093 Z M88.5173223,38.3633721 C88.5137778,38.6333023 88.3755325,38.7072558 88.1309452,38.7072558 L87.1880435,38.7072558 L87.1880435,38.9365116 L88.1770269,38.9365116 C88.5137778,38.9365116 88.744186,38.7923023 88.744186,38.4151395 L88.744186,38.2672326 C88.744186,37.8789767 88.5137778,37.7088837 88.1770269,37.7088837 L87.7835604,37.7088837 C87.5496073,37.7088837 87.3971833,37.6312326 87.3971833,37.376093 C87.3971833,37.0987674 87.5354283,37.0211163 87.7835604,37.0211163 L88.7264625,37.0211163 L88.7264625,36.7918605 L87.7374788,36.7918605 C87.4007282,36.7918605 87.1703196,36.9360698 87.1703196,37.3132326 L87.1703196,37.376093 C87.1703196,37.7643488 87.4007282,37.9344419 87.7374788,37.9344419 L88.1309452,37.9344419 C88.3648983,37.9344419 88.5173223,38.012093 88.5173223,38.2672326 L88.5173223,38.3633721 Z" id="y-Servicios" fill="url(#linearGradient-1)" fill-rule="nonzero"></path>
                        <path d="M60.9655949,16.9081462 C60.4301085,16.9081462 60.1404447,17.1719694 60.1404447,17.7782998 L60.1404447,21.9593575 C60.1404447,22.5888304 60.4316742,22.8418538 60.9655949,22.8418538 L64.7093023,22.8418538 L64.7093023,24.3430233 L60.4535946,24.3430233 C59.3372152,24.3430233 58.5465116,23.7937773 58.5465116,22.645915 L58.5465116,17.1719694 C58.5465116,16.0256498 59.3293863,15.4069767 60.4535946,15.4069767 L64.7093023,15.4069767 L64.7093023,16.9081462 L60.9655949,16.9081462 Z" id="Shape" fill="url(#linearGradient-2)" fill-rule="nonzero"></path>
                        <path d="M65.0174419,24.3430233 L67.8465628,16.0962982 C68.1041865,15.350166 68.5498919,15.0988372 69.0382708,15.0988372 C69.5266498,15.0988372 70.0245118,15.3438827 70.2710721,16.090015 L73.0290698,24.33674 L71.3663686,24.33674 L70.7088746,22.5177481 L67.3407982,22.5177481 L66.6833043,24.33674 L65.0174419,24.3430233 Z M69.0382708,17.5084517 L67.8054693,20.9956383 L70.2584279,20.9956383 L69.0382708,17.5084517 Z" id="Shape" fill="url(#linearGradient-2)" fill-rule="nonzero"></path>
                        <path d="M83.7998761,20.866952 C83.6958664,20.7697424 83.6128681,20.6528167 83.5558672,20.5231987 L83.5558672,24.3353158 L81.9651163,24.3353158 L81.9651163,15.4069767 L86.9016056,15.4069767 C88.0278008,15.4069767 88.8067525,16.0235747 88.8067525,17.170447 L88.8067525,19.020241 C88.8067525,20.3135553 88.3656594,20.9779397 86.6169284,20.9779397 L85.8348484,20.9779397 L89.0523256,24.3430233 L87.0986895,24.3430233 L83.7998761,20.866952 Z M83.5558672,19.801779 C83.7377749,19.5691254 84.024814,19.4403863 84.3223055,19.4580256 L86.3901251,19.4580256 C86.925068,19.4580256 87.2269507,19.19443 87.2269507,18.5886224 L87.2269507,17.7762546 C87.2269507,17.1689055 86.925068,16.9068514 86.3901251,16.9068514 L83.5558672,16.9068514 L83.5558672,19.801779 Z" id="Shape" fill="url(#linearGradient-2)" fill-rule="nonzero"></path>
                        <path d="M97.0639535,22.6447421 C97.0639535,23.7918538 96.2890254,24.3430233 95.1762291,24.3430233 L92.1726081,24.3430233 C91.0675609,24.3430233 90.2848837,23.7254665 90.2848837,22.5768109 L90.2848837,17.1731891 C90.2848837,16.0260774 91.0598118,15.4069767 92.1726081,15.4069767 L95.1762291,15.4069767 C96.2921253,15.4069767 97.0639535,16.0245335 97.0639535,17.1731891 L97.0639535,22.6447421 Z M91.862637,21.9561663 C91.862637,22.5860742 92.1509102,22.8392725 92.7491548,22.8392725 L94.6709761,22.8392725 C95.2010266,22.8392725 95.5001487,22.5876181 95.5001487,21.9561663 L95.5001487,17.7722192 C95.5001487,17.1639258 95.2010266,16.9014642 94.6709761,16.9014642 L92.7429553,16.9014642 C92.1447107,16.9014642 91.8564376,17.1654697 91.8564376,17.7722192 L91.862637,21.9561663 Z" id="Shape" fill="url(#linearGradient-2)" fill-rule="nonzero"></path>
                        <path d="M76.5747165,15.0988372 L77.5717971,15.0988372 C78.5411382,15.0988372 78.981888,15.6525998 78.981888,16.6490552 L78.981888,17.013999 C78.981888,18.4166527 78.223675,18.5546967 77.1495403,19.0687915 L79.4334252,21.4393397 C79.4759241,21.2881463 79.4987262,21.1318098 79.5012329,20.974433 L79.5012329,19.2465033 L80.117666,19.2465033 L80.117666,20.4412976 C80.117666,21.0236211 80.097632,21.6170515 79.9358184,21.9629548 L80.7325581,22.8023256 L79.9204074,22.8023256 L79.5551708,22.4262748 C79.2192146,22.7912186 78.7399378,22.8023256 78.038745,22.8023256 L75.970612,22.8023256 C75.0012706,22.8023256 74.5697674,22.2295224 74.5697674,21.2711482 L74.5697674,20.7284926 C74.5697674,19.6019268 75.1646256,19.3750269 76.1724936,18.9307475 L76.086193,18.8418916 C75.5683891,18.3087563 75.1615433,17.8898642 75.1615433,16.9378368 C75.1646256,15.7890571 75.4713008,15.0988372 76.5747165,15.0988372 Z M75.9413313,19.6622219 C75.4620545,19.898642 75.2216456,20.0382727 75.2216456,20.7284926 C75.2216456,21.6170515 75.2694192,22.2009616 76.104686,22.2009616 L78.1959356,22.2009616 C78.5996995,22.2009616 78.9063747,22.1311463 79.078976,21.9343939 L76.5932095,19.3448794 L75.9413313,19.6622219 Z M76.6995441,15.7303487 C75.9413313,15.7303487 75.7980104,16.1063995 75.7980104,16.9552906 C75.7980104,17.8739971 76.2110209,18.0913767 76.7226604,18.6435525 L77.8938834,18.0707494 C78.2868596,17.8739971 78.3454206,17.5074665 78.3454206,16.9346634 C78.3454206,16.0556247 78.2390859,15.728762 77.4531335,15.728762 L76.6995441,15.7303487 Z" id="Shape" fill="url(#radialGradient-3)" fill-rule="nonzero"></path>
                        <polygon id="Shape" fill="url(#radialGradient-4)" fill-rule="nonzero" points="57.622093 27.4244186 99.5290698 27.4244186 98.7066873 26.5 58.6500712 26.5"></polygon>
                        <polygon id="Shape" fill="url(#linearGradient-2)" fill-rule="nonzero" points="57.622093 28.6569767 99.5290698 28.6569767 98.7066873 27.7325581 58.6500712 27.7325581"></polygon>
                        <circle id="Oval" fill="url(#radialGradient-5)" fill-rule="nonzero" cx="28.8110465" cy="23.880814" r="11.247093"></circle>
                        <path d="M28.6569767,24.3430233 L28.6569767,24.8430233" id="Shape" stroke="#FFFFFF" stroke-width="1.5"></path>
                        <path d="M28.6569767,25.5755814 L28.6569767,52.3837209" id="Shape" stroke="#2E2E2E" stroke-dasharray="3"></path>
                        <path d="M28.6569767,52.6918605 L28.6569767,53.1918605" id="Shape" stroke="#2E2E2E" stroke-dasharray="3"></path>
                        <path d="M28.6569767,24.3430233 L29.1569767,24.8430233" id="Shape" stroke="#FFFFFF" stroke-width="1.5"></path>
                        <path d="M29.5813953,25.2674419 L48.377907,44.0639535" id="Shape" stroke="#2E2E2E" stroke-dasharray="3"></path>
                        <path d="M48.6860465,44.372093 L49.1860465,44.872093" id="Shape" stroke="#2E2E2E" stroke-dasharray="3"></path>
                        <path d="M28.6569767,42.1466313 C19.219723,42.1459266 11.3705442,34.9290701 10.634014,25.5755814 C9.37958536,31.0313687 10.6916753,36.7581599 14.1990516,41.1356631 C17.7064279,45.5131661 23.0275773,48.0652202 28.6569767,48.0697674 L28.6569767,42.1466313 Z" id="Shape" fill="url(#linearGradient-2)" fill-rule="nonzero"></path>
                        <path d="M42.2151163,11.8687284 C48.8351962,18.5898492 49.155474,29.2566411 42.9504978,36.3604651 C47.7505697,33.4161299 50.9450097,28.4534705 51.6299824,22.8766233 C52.314955,17.2997762 50.4159502,11.7153811 46.4702724,7.70348837 L42.2151163,11.8687284 Z" id="Shape" fill="url(#radialGradient-6)" fill-rule="nonzero" transform="translate(46.991279, 22.031977) rotate(2.000000) translate(-46.991279, -22.031977) "></path>
                        <path d="M12.084935,41.3594544 C7.65430289,36.9675484 4.93682755,31.0383194 4.93682755,24.5144509 C4.93682755,11.7367206 15.2236269,0.408912342 28.6569767,0.104569186 C27.8899854,0.037457619 27.1151356,0 26.3324273,0 C11.7878831,0 0.0001068394,11.9349339 0.0001068394,26.6588996 C-0.019961421,33.7508197 2.78784915,40.5622768 7.80990153,45.6046512 L12.084935,41.3594544 Z" id="Shape" fill="url(#linearGradient-7)" fill-rule="nonzero"></path>
                        <path d="M28.8110465,42.2151163 C38.9368021,42.2151163 47.1453488,34.0065695 47.1453488,23.880814 C47.1453488,13.7550584 38.9368021,5.54651163 28.8110465,5.54651163 C18.6852909,5.54651163 10.4767442,13.7550584 10.4767442,23.880814 C10.4767442,34.0065695 18.6852909,42.2151163 28.8110465,42.2151163 Z" id="Oval-Copy" stroke="#2E2E2E" stroke-dasharray="3"></path>
                    </g>
                </g>
            </g>
        </g>
    </g>
</svg>