<?xml version="1.0" encoding="UTF-8"?>
<svg width="61px" height="59px" viewBox="0 0 61 59" version="1.1" xmlns="http://www.w3.org/2000/svg" xmlns:xlink="http://www.w3.org/1999/xlink">
    <!-- Generator: Sketch 51.3 (57544) - http://www.bohemiancoding.com/sketch -->
    <title>github</title>
    <desc>Created with Sketch.</desc>
    <defs></defs>
    <g id="Page-1" stroke="none" stroke-width="1" fill="none" fill-rule="evenodd">
        <g id="Mobile" transform="translate(-50.000000, -1500.000000)" fill="#000000" fill-rule="nonzero">
            <g id="Portfolio" transform="translate(20.000000, 1416.000000)">
                <g id="desarrollomovil-copy" transform="translate(0.000000, 44.000000)">
                    <g id="Group-5" transform="translate(30.000000, 40.000000)">
                        <g id="github">
                            <path d="M56.9086299,15.0607611 C54.1812353,10.4275719 50.4816986,6.75946951 45.8090463,4.05562654 C41.1356984,1.35164567 36.0337958,0 30.4997218,0 C24.9663433,0 19.8627715,1.35205939 15.1903974,4.05562654 C10.5173277,6.7593316 6.81793016,10.4275719 4.09053554,15.0607611 C1.36355821,19.6938125 0,24.7531404 0,30.238607 C0,36.8278968 1.93899842,42.753155 5.81796892,48.0158987 C9.69652214,53.279056 14.7070387,56.9209557 20.8491013,58.9420114 C21.5640549,59.0735766 22.0933152,58.9810397 22.4374387,58.6667451 C22.7817013,58.3520369 22.953624,57.9578931 22.953624,57.4859687 C22.953624,57.4072227 22.9468083,56.6987844 22.9335942,55.3598263 C22.9199628,54.0208683 22.9135644,52.8527794 22.9135644,51.8561114 L22.0001209,52.012776 C21.4177258,52.1185522 20.6830207,52.1633726 19.7960054,52.1506849 C18.9094075,52.138411 17.9890091,52.0462879 17.0360624,51.8750049 C16.0826983,51.705239 15.1959612,51.311509 14.3751556,50.6946422 C13.5547673,50.0777754 12.9723723,49.2703185 12.6281097,48.2735126 L12.2309906,47.3674508 C11.9662909,46.764237 11.5495592,46.0941374 10.9802392,45.3596343 C10.4109193,44.6244417 9.83520087,44.1260387 9.25280586,43.8635979 L8.97475293,43.6662502 C8.78947704,43.5350988 8.61755437,43.3769172 8.45856763,43.1933604 C8.29971998,43.0098036 8.18079289,42.8261089 8.10136907,42.6421383 C8.02180615,42.4580299 8.08773766,42.3070196 8.29985908,42.1885558 C8.5119805,42.070092 8.89532911,42.012584 9.45157407,42.012584 L10.2455341,42.1302203 C10.7750726,42.2354448 11.4300758,42.5497393 12.2113781,43.0750345 C12.9922631,43.599916 13.6341912,44.2822895 14.1373014,45.1218793 C14.746542,46.1983966 15.4805516,47.018679 16.3414169,47.5831404 C17.2015866,48.1476017 18.0688502,48.4293497 18.9423732,48.4293497 C19.8158962,48.4293497 20.5703529,48.3637051 21.2060217,48.2331053 C21.840995,48.1018159 22.4367432,47.9044682 22.9929882,47.6421654 C23.2312597,45.882723 23.8800035,44.5310773 24.9386632,43.586263 C23.4297497,43.4290468 22.0731463,43.1922572 20.8681575,42.877411 C19.6638642,42.5621511 18.4193722,42.0505089 17.135516,41.3411053 C15.8509643,40.632667 14.7853498,39.7529457 13.9383941,38.7034586 C13.0912994,37.6534198 12.3960976,36.2748819 11.8537622,34.569086 C11.3111487,32.8626006 11.0397723,30.8940882 11.0397723,28.6629971 C11.0397723,25.4862644 12.0857744,22.782973 14.1773611,20.5516062 C13.1975688,18.1632989 13.2900676,15.4859344 14.4551358,12.5197886 C15.2229458,12.2832748 16.3615858,12.4607636 17.8704993,13.0511518 C19.3796911,13.6418159 20.4846698,14.1478038 21.1865483,14.5673229 C21.8884268,14.986704 22.4507919,15.3420954 22.8744784,15.6303251 C25.3371733,14.9480895 27.8785965,14.6069028 30.4994436,14.6069028 C33.1202907,14.6069028 35.6622703,14.9480895 38.1251043,15.6303251 L39.634157,14.6857867 C40.6661103,14.0555428 41.8847305,13.4779801 43.2870965,12.9529607 C44.690297,12.4282171 45.7632837,12.2836885 46.5049436,12.5202024 C47.6958837,15.4864861 47.8020139,18.1637126 46.8219434,20.5520199 C48.9133911,22.7833868 49.9598104,25.4873676 49.9598104,28.6634109 C49.9598104,30.8945019 49.6874604,32.8692203 49.1456814,34.588807 C48.603207,36.3086696 47.902024,37.6858284 47.0418542,38.7231796 C46.1807108,39.7603928 45.1082805,40.6332186 43.8244243,41.341519 C42.54029,42.050371 41.2953806,42.5620132 40.0910874,42.8772731 C38.8862377,43.192533 37.5296343,43.4294606 36.0207207,43.5869526 C37.3969367,44.7677291 38.0851838,46.6315686 38.0851838,49.1776437 L38.0851838,57.4848654 C38.0851838,57.9567898 38.250708,58.3507957 38.5820347,58.6656419 C38.9129441,58.9799364 39.4355279,59.0724733 40.1504814,58.9407702 C46.2933786,56.9199903 51.3038951,53.2779527 55.1823093,48.0147954 C59.0603061,42.7520518 61,36.8267935 61,30.2375037 C60.998609,24.7527266 59.6343553,19.6938125 56.9086299,15.0607611 Z" id="Shape"></path>
                        </g>
                    </g>
                </g>
            </g>
        </g>
    </g>
</svg>