<?xml version="1.0" encoding="UTF-8"?>
<svg width="40px" height="40px" viewBox="0 0 40 40" version="1.1" xmlns="http://www.w3.org/2000/svg" xmlns:xlink="http://www.w3.org/1999/xlink">
    <!-- Generator: Sketch 51.3 (57544) - http://www.bohemiancoding.com/sketch -->
    <title>Instagram</title>
    <desc>Created with Sketch.</desc>
    <defs></defs>
    <g id="Page-1" stroke="none" stroke-width="1" fill="none" fill-rule="evenodd">
        <g id="Mobile" transform="translate(-140.000000, -2483.000000)" fill="#E01171" fill-rule="nonzero">
            <g id="redes" transform="translate(0.000000, 2338.000000)">
                <g id="Group-8" transform="translate(129.000000, 65.000000)">
                    <g id="Instagram" transform="translate(11.000000, 80.000000)">
                        <path d="M28.8014118,0 L10.9774118,0 C4.92447059,0 0,4.92470588 0,10.9776471 L0,28.8016471 C0,34.8548235 4.92447059,39.7792941 10.9774118,39.7792941 L28.8014118,39.7792941 C34.8548235,39.7792941 39.7792941,34.8545882 39.7792941,28.8016471 L39.7792941,10.9776471 C39.7795294,4.92470588 34.8548235,0 28.8014118,0 Z M36.2501176,28.8016471 C36.2501176,32.9087059 32.9087059,36.2498824 28.8016471,36.2498824 L10.9774118,36.2498824 C6.87058824,36.2501176 3.52941176,32.9087059 3.52941176,28.8016471 L3.52941176,10.9776471 C3.52941176,6.87082353 6.87058824,3.52941176 10.9774118,3.52941176 L28.8014118,3.52941176 C32.9084706,3.52941176 36.2498824,6.87082353 36.2498824,10.9776471 L36.2498824,28.8016471 L36.2501176,28.8016471 Z" id="Shape"></path>
                        <path d="M19.8896471,9.64 C14.2376471,9.64 9.63952941,14.2381176 9.63952941,19.8901176 C9.63952941,25.5418824 14.2376471,30.1397647 19.8896471,30.1397647 C25.5416471,30.1397647 30.1397647,25.5418824 30.1397647,19.8901176 C30.1397647,14.2381176 25.5416471,9.64 19.8896471,9.64 Z M19.8896471,26.6101176 C16.184,26.6101176 13.1689412,23.5955294 13.1689412,19.8898824 C13.1689412,16.184 16.1837647,13.1691765 19.8896471,13.1691765 C23.5955294,13.1691765 26.6103529,16.184 26.6103529,19.8898824 C26.6103529,23.5955294 23.5952941,26.6101176 19.8896471,26.6101176 Z" id="Shape"></path>
                        <path d="M30.5696471,6.64729412 C29.8896471,6.64729412 29.2216471,6.92258824 28.7414118,7.40494118 C28.2588235,7.88494118 27.9814118,8.55317647 27.9814118,9.23552941 C27.9814118,9.91576471 28.2590588,10.5837647 28.7414118,11.0661176 C29.2214118,11.5461176 29.8896471,11.8237647 30.5696471,11.8237647 C31.252,11.8237647 31.9178824,11.5461176 32.4002353,11.0661176 C32.8825882,10.5837647 33.1578824,9.91552941 33.1578824,9.23552941 C33.1578824,8.55317647 32.8825882,7.88494118 32.4002353,7.40494118 C31.9202353,6.92258824 31.252,6.64729412 30.5696471,6.64729412 Z" id="Shape"></path>
                    </g>
                </g>
            </g>
        </g>
    </g>
</svg>