<?xml version="1.0" encoding="UTF-8"?>
<svg width="40px" height="40px" viewBox="0 0 40 40" version="1.1" xmlns="http://www.w3.org/2000/svg" xmlns:xlink="http://www.w3.org/1999/xlink">
    <!-- Generator: Sketch 51.3 (57544) - http://www.bohemiancoding.com/sketch -->
    <title>Shape</title>
    <desc>Created with Sketch.</desc>
    <defs></defs>
    <g id="Page-1" stroke="none" stroke-width="1" fill="none" fill-rule="evenodd">
        <g id="Mobile" transform="translate(-140.000000, -2403.000000)" fill="#E01171" fill-rule="nonzero">
            <g id="redes" transform="translate(0.000000, 2338.000000)">
                <g id="Group-8" transform="translate(129.000000, 65.000000)">
                    <path d="M51,19.3566988 C51,30.0472339 42.2093333,38.7133977 31.3635556,38.7133977 C28.0457164,38.7187089 24.7804369,37.8901789 21.8715556,36.3049035 L11,39.7368421 L14.5444444,29.3513977 C12.6970847,26.3409745 11.7220199,22.8824055 11.7266667,19.3566988 C11.7266667,8.66616374 20.5182222,0 31.364,0 C42.2102222,3.92148951e-16 51,8.66616374 51,19.3566988 M31.3635556,3.08269591 C22.2595556,3.08269591 14.8542222,10.3832368 14.8542222,19.3566988 C14.8542222,22.9180029 16.0226667,26.2157193 17.9991111,28.8983977 L15.9364444,34.9419298 L22.2808889,32.9387515 C24.9783631,34.6993572 28.1364204,35.6353067 31.364,35.6307018 C40.4666667,35.6307018 47.8733333,28.3310439 47.8733333,19.3571404 C47.8728889,10.3836784 40.4671111,3.08269591 31.3635556,3.08269591 M41.2795556,23.814731 C41.1582222,23.6173713 40.8377778,23.4981608 40.3568889,23.2610643 C39.8751111,23.0239678 37.508,21.8755731 37.068,21.7183918 C36.6266667,21.559886 36.3048889,21.4804123 35.9844444,21.9550468 C35.664,22.4301228 34.7413333,23.4981608 34.46,23.814731 C34.1791111,24.1321842 33.8986667,24.1719211 33.4168889,23.934383 C32.936,23.6972865 31.3853333,23.1957193 29.5466667,21.5793129 C28.116,20.3223041 27.1497778,18.7694766 26.8688889,18.2944006 C26.5884444,17.8197661 26.8395556,17.5632427 27.08,17.3270292 C27.2968889,17.1142164 27.5617778,16.7729211 27.8022222,16.4960877 C28.0435556,16.2188129 28.1235556,16.0214532 28.2831111,15.7044415 C28.4444444,15.3878713 28.364,15.111038 28.2431111,14.8730585 C28.1231111,14.635962 27.1595556,12.3012018 26.7586667,11.3514912 C26.3577778,10.4017807 25.9573333,10.559845 25.676,10.559845 C25.3955556,10.559845 25.0742222,10.5201082 24.7533333,10.5201082 C24.4324444,10.5201082 23.9106667,10.6388772 23.4693333,11.1135117 C23.0284444,11.5885877 21.7853333,12.7365409 21.7853333,15.0708596 C21.7853333,17.4056199 23.5093333,19.661348 23.7506667,19.9779181 C23.9911111,20.2940468 27.0795556,25.2408421 31.9728889,27.1407047 C36.8666667,29.0392427 36.8666667,28.4056608 37.7493333,28.3261871 C38.6311111,28.247155 40.5964444,27.1786754 40.9991111,26.0713421 C41.3991111,24.9622427 41.3991111,24.0125322 41.2795556,23.814731" id="Shape"></path>
                </g>
            </g>
        </g>
    </g>
</svg>